# xmcd
#
# Track frame offsets: 
#        150
#        23113
#        43943
#        65825
#        85288
#        103730
#        122815
#        142563
#        168330
#        190975
#
# Disc length: 2897 seconds
#
# Revision: 0
# Processed by: cddbd v1.5.2PL0 Copyright (c) Steve Scherf et al.
# Submitted via: ExactAudioCopy v1.0b3
#
DISCID=880b4f0a
DTITLE=Various Artist - Ke O Mien Xa
DYEAR=1992
DGENRE=
TTITLE0=Giao Linh - Dam me
TTITLE1=Anh Thoai - Ke o mien xa
TTITLE2=Thien Trang - Bong co may
TTITLE3=Hoang Ba Tuoc - Chi co ban be thoi
TTITLE4=Huy Sinh - Co hang xom (Vung ngoai o)
TTITLE5=Thien Trang - Huong tinh cu
TTITLE6=Hoang Ba Tuoc - Ngoai o den vang
TTITLE7=Giao Linh - Hanh trang gia tu
TTITLE8=Huy Sinh - Tieng coi trong suong dem
TTITLE9=Nhu Mai - Tam su voi anh
EXTD=
EXTT0=
EXTT1=
EXTT2=
EXTT3=
EXTT4=
EXTT5=
EXTT6=
EXTT7=
EXTT8=
EXTT9=
PLAYORDER=
